<svg width="36" height="37" viewBox="0 0 36 37" fill="none" xmlns="http://www.w3.org/2000/svg">
<path d="M27.1846 9.11644C25.3609 8.23804 23.4366 7.61111 21.4595 7.25128C21.4416 7.24812 21.4232 7.25085 21.4068 7.25911C21.3904 7.26737 21.3769 7.28075 21.3681 7.2974C21.1202 7.75862 20.846 8.36189 20.6544 8.83418C18.5233 8.49474 16.3555 8.49474 14.2244 8.83418C14.0107 8.30806 13.7689 7.79499 13.5002 7.2974C13.4912 7.28093 13.4776 7.2677 13.4613 7.25947C13.445 7.25124 13.4267 7.24838 13.4088 7.25128C11.4313 7.60919 9.50648 8.23644 7.68365 9.11644C7.66805 9.12269 7.655 9.13443 7.64674 9.14965C4.00107 14.8669 3.00089 20.4439 3.49131 25.9508C3.49307 25.9767 3.50889 26.0025 3.52822 26.0191C5.65116 27.6695 8.0257 28.9297 10.5506 29.7457C10.5684 29.7516 10.5876 29.7514 10.6053 29.7451C10.623 29.7388 10.6383 29.7267 10.649 29.7107C11.1904 28.9358 11.6721 28.1186 12.0869 27.2588C12.0956 27.2411 12.0985 27.221 12.0954 27.2014C12.0922 27.1817 12.0831 27.1637 12.0693 27.15C12.0603 27.141 12.0495 27.1341 12.0377 27.1297C11.2804 26.8242 10.5469 26.4572 9.84398 26.032C9.82435 26.0203 9.80974 26.0012 9.8032 25.9785C9.79665 25.9558 9.79867 25.9314 9.80882 25.9102C9.8148 25.8965 9.82385 25.8845 9.83519 25.8752C9.98284 25.759 10.1305 25.6372 10.2711 25.5154C10.2835 25.505 10.2984 25.4982 10.3142 25.496C10.33 25.4937 10.3461 25.496 10.3608 25.5025C14.9644 27.709 19.9478 27.709 24.4952 25.5025C24.5104 25.4956 24.5271 25.4932 24.5435 25.4955C24.5599 25.4977 24.5754 25.5046 24.5884 25.5154C24.729 25.6372 24.8766 25.759 25.0243 25.8752C25.0363 25.8844 25.0459 25.8965 25.0523 25.9105C25.0587 25.9246 25.0616 25.9401 25.0609 25.9556C25.0602 25.9711 25.0559 25.9862 25.0483 25.9996C25.0406 26.0129 25.03 26.0241 25.0173 26.032C24.3159 26.4611 23.5815 26.8277 22.8218 27.1279C22.8097 27.1325 22.7986 27.1398 22.7895 27.1494C22.7804 27.1589 22.7734 27.1705 22.769 27.1832C22.765 27.1955 22.7633 27.2086 22.7642 27.2216C22.7652 27.2346 22.7686 27.2473 22.7743 27.2588C23.1962 28.1167 23.6796 28.9358 24.2104 29.7107C24.2212 29.7267 24.2365 29.7388 24.2542 29.7451C24.2719 29.7514 24.291 29.7516 24.3089 29.7457C26.838 28.9322 29.2164 27.6719 31.3418 26.0191C31.3524 26.0114 31.3613 26.0012 31.3677 25.9894C31.3741 25.9776 31.3778 25.9644 31.3787 25.9508C31.9658 19.5842 30.3961 14.0533 27.2198 9.15149C27.2166 9.1434 27.2118 9.13609 27.2057 9.13006C27.1997 9.12402 27.1925 9.11938 27.1846 9.11644ZM12.7742 22.5969C11.3873 22.5969 10.2465 21.2612 10.2465 19.6229C10.2465 17.9829 11.3662 16.6472 12.7742 16.6472C14.1928 16.6472 15.323 17.9939 15.3019 19.6229C15.3019 21.2612 14.1822 22.5969 12.7742 22.5969ZM22.1187 22.5969C20.7335 22.5969 19.5909 21.2612 19.5909 19.6229C19.5909 17.9829 20.7107 16.6472 22.1187 16.6472C23.5372 16.6472 24.6692 17.9939 24.6464 19.6229C24.6464 21.2612 23.5372 22.5969 22.1187 22.5969Z" fill="#ABB2BF"/>
</svg>
