<?xml version="1.0" standalone="no"?>
<!DOCTYPE svg PUBLIC "-//W3C//DTD SVG 20010904//EN"
 "http://www.w3.org/TR/2001/REC-SVG-20010904/DTD/svg10.dtd">
<svg version="1.0" xmlns="http://www.w3.org/2000/svg"
 width="225.000000pt" height="225.000000pt" viewBox="0 0 225.000000 225.000000"
 preserveAspectRatio="xMidYMid meet">
<metadata>
Created by potrace 1.10, written by Peter Selinger 2001-2011
</metadata>
<g transform="translate(0.000000,225.000000) scale(0.100000,-0.100000)"
fill="#f7f7f7" stroke="none">
<path d="M1696 1519 c-31 -24 -46 -73 -34 -114 4 -16 29 -51 55 -77 43 -44 46
-49 34 -74 -12 -26 -12 -26 -110 -22 -83 3 -105 8 -147 31 -177 97 -254 118
-373 100 -96 -15 -156 -45 -299 -151 -175 -130 -237 -141 -368 -66 -103 60
-151 76 -241 81 -81 6 -82 5 -112 -25 -26 -25 -31 -39 -31 -76 0 -68 29 -96
110 -108 37 -5 82 -19 109 -35 154 -90 245 -114 362 -96 93 15 172 55 308 156
69 51 132 90 158 98 70 19 136 6 209 -42 92 -60 164 -79 293 -79 147 0 165
-20 86 -100 -51 -52 -66 -90 -53 -137 16 -62 99 -94 161 -62 31 16 336 319
353 351 8 15 14 44 14 64 0 36 -11 49 -183 221 l-183 183 -46 0 c-31 0 -54 -7
-72 -21z m271 -192 c145 -145 173 -177 173 -202 0 -25 -28 -57 -173 -202 -147
-147 -177 -173 -203 -173 -81 0 -98 66 -36 139 59 70 65 86 48 119 -21 41 -55
52 -160 52 -114 0 -174 17 -280 78 -76 45 -84 47 -155 47 -91 -1 -111 -10
-261 -120 -132 -97 -181 -122 -268 -136 -100 -16 -198 5 -302 66 -50 30 -102
51 -146 60 -72 15 -94 32 -94 72 0 89 142 83 317 -13 83 -46 92 -49 163 -49
91 0 112 10 268 124 127 94 172 116 263 130 112 18 177 4 318 -72 91 -48 98
-50 190 -55 94 -4 98 -4 129 23 47 39 43 74 -13 143 -49 60 -56 91 -25 122 44
44 62 32 247 -153z"/>
</g>
</svg>
